<svg version="1" xmlns="http://www.w3.org/2000/svg" width="346.667" height="346.667" viewBox="0 0 260.000000 260.000000"><path d="M190.8 26.7c1.2.2 3.2.2 4.5 0 1.2-.2.2-.4-2.3-.4s-3.5.2-2.2.4zM194.6 30c5.8.8 7.7 1.7 6.9 3-.3.5 1.1 2 3.3 3.3 2.1 1.4 5.3 4.2 7.1 6.3 6.8 7.7 6.5 3.5 6.2 81.4-.2 77.9-.1 76.1-6.6 83.8-1.9 2.2-5.5 5-7.9 6.1-4.2 2.1-6.5 2.2-58.6 3.1-52.2.9-70.6 1.9-41.4 2.1 7.6.1 16.8.5 20.4.9 3.8.4-9.4.8-31.6.8-33.3.2-38.8 0-43.4-1.5-6.3-2-13.9-8.6-16.5-14.2-2.2-5-3.2-4.8-1.1.2 2.2 5.4 9 12.2 14.9 14.8l5.2 2.4h148l6.3-2.9c8-3.7 14.6-10.8 16.7-17.9 1.8-6 2-51.4.5-111.7-1-42.6-1.1-43.1-9.9-52.1-6-6.1-12.7-9-20-8.8-3 .1-2.8.3 1.5.9zm10.1 3.6c-.3.3-1.2.4-1.9.1-.8-.3-.5-.6.6-.6 1.1-.1 1.7.2 1.3.5z"/><path d="M34.2 37.5c-2.2 2.5-5.1 6.7-6.4 9.3l-2.3 4.7v150l2.4 4.5c5.6 10.7 13 16.7 23.8 19.5 5.3 1.4 15.3 1.5 76.9 1.3l70.9-.3 6.2-2.9c6.3-2.9 13.8-9.7 16.2-14.7l1.2-2.4-1.8 2.5c-3.1 4.5-8.8 9.4-14.3 12.5l-5.5 3-74.1.3c-73.9.2-74.2.2-80-1.9-8.1-3-16.3-11.2-19.3-19.3-2.1-5.8-2.1-6.1-1.9-78.5l.3-72.6 2.6-5.6c1.5-3.1 4.3-7.5 6.4-9.8 2.1-2.2 3.5-4.1 3.2-4.1-.3 0-2.3 2-4.5 4.5z"/><path d="M121.5 34c-62.7.5-68.3.6-72 2.3-5 2.3-10 7-12.8 12.2-2.2 4-2.2 4.4-2.5 75-.2 51.1 0 72.1.8 74.9 1.4 4.7 4.5 9 7.9 11.2 2.1 1.3 2 1.1-.5-1.3-6.4-6-6.1-2.2-6.9-79.5l-.7-70.6 2.5-5.6c3.2-7 9.9-13.8 15.3-15.4 3.1-.9 21.6-1.2 73.8-1.2 77.2 0 72.8-.4 81.4 6.7 3.2 2.7 4.1 3.1 3.3 1.5-2.3-4.4-14.8-11.4-19.6-10.9-1.1.1-32.6.4-70 .7z"/><path d="M71.5 38.9c-21 .7-22.7 1.1-28.3 7.5-1.7 2-3.6 5.2-4.1 7.3-1.7 5.9-1.4 139.7.3 144.4 1.9 5.3 6.4 10.8 10.7 13 3.7 1.8 6.6 1.9 75.2 1.9h71.5l5.3-2.8c3.9-2 6.2-4.1 8.4-7.7l3-4.8.3-69.6c.2-46.4 0-70.8-.7-73.2-1.7-5.7-6.4-11.4-11.6-13.8-4.6-2.1-5.5-2.2-57.8-2.5-29.3-.2-61.7-.1-72.2.3zm80 7.6c24.9 1.7 33.8 4.1 41.2 10.9 6.6 6 6.8 6.3 9.2 17.2 2.7 12.1 3 14.8 3.8 30.6.9 21.6-1.1 41-7.1 67.3-3.7 16.6-5.6 21.5-8.3 21.5-1.3 0-2.3.3-2.3.7 0 .9-7.3 4.1-11.1 4.8-13 2.8-19.6 3.7-33.4 4.6-8.8.5-18.7 1.4-22 1.9-7.1.9-23.7.4-31.5-1.1-3-.6-9.3-2.2-14-3.5-4.6-1.3-9.2-2.4-10.2-2.4-1.6 0-8.3-6.4-11.6-11.1-1.5-2.2-4.9-15.2-5.7-21.8-.3-2.5-.8-5.7-1-7.1-1.7-9.3-3.2-65.2-2-72.5.3-1.7.7-4.4.9-6 .9-8.2 3.2-17.8 4.6-19 1.7-1.6 5.1-4.9 8.1-8.1 3.6-3.7 19.6-6.7 42.4-7.7 8.8-.4 39.6.1 50 .8z"/><path d="M129.5 59c6.1.4 13.8 1.4 17.2 2.3 15 3.9 26.6 13 34.2 27 4.8 8.7 6.5 10.4 2.5 2.4-11.4-22.6-29-32.9-55.4-32.5l-9.5.1 11 .7zM113.3 59.7c.9.2 2.5.2 3.5 0 .9-.3.1-.5-1.8-.5-1.9 0-2.7.2-1.7.5zM108.8 60.7c.7.3 1.6.2 1.9-.1.4-.3-.2-.6-1.3-.5-1.1 0-1.4.3-.6.6zM104.8 61.7c.7.3 1.6.2 1.9-.1.4-.3-.2-.6-1.3-.5-1.1 0-1.4.3-.6.6zM91.7 66.7c-13.2 7-23.2 20.7-27.8 38-3 10.9-3.2 32.9-.5 42.3 3 10.4 8.3 20.2 14.7 27.4 3.2 3.7 5.9 7.1 5.9 7.6 0 .6.5 1 1.1 1 .5 0 .7-.5.3-1.1-.3-.6.5-.3 2 .6 3 2 3.4 2.7.9 1.8-1-.3-1.5-.3-1.2.1.4.4 1.6.8 2.8 1.1 1.1.2 4.7 1.7 7.9 3.3 11.1 5.6 22.3 7.7 37.6 6.9 18.7-1 30.9-5.4 41.1-15.1 3.2-3.1 6.3-5.6 6.7-5.6.4 0 .8-.9.8-2s1.3-3.1 2.8-4.5c2.2-2 2.8-3.2 2.4-5.5-.3-1.8 0-3 .7-3 1.7 0 1.3-7.6-.4-9.4-.8-.8-1.5-1.9-1.5-2.5 0-.5-.9-1.3-2-1.6-1.1-.4-1.8-1.1-1.4-1.6.3-.6-.2-1.9-1.3-3.1-1.8-2.1-8.6-5.9-10-5.7-.5.1-2.4 0-4.3-.1-3.3-.2-3.3-.3-1-1l2.5-.8-2.5-.1c-1.4-.1-4.3-.4-6.5-.7-3-.4-3.6-.3-2.5.5 1.2.8.8 1.1-1.7 1.1-4 0-6.7 2.7-8.3 8.6-3.1 10.9-10.6 16.5-22 16.2-3.6 0-5.3-.3-3.7-.5 1.5-.2 5.6-2 9-4 3.4-2 7.1-4.1 8.2-4.7 6.8-3.8 9.3-7.7 6.7-10.6-1.3-1.6-1.7-1.6-4.4-.2-1.7.8-5.3 3-8.1 4.8-4.4 2.9-6 3.4-10.9 3.4-4.3 0-6.3-.5-7.6-1.8-1-1-2.2-1.7-2.8-1.5-1.6.5-6.5-8.8-7.6-14.6-3.1-17 4.3-32.9 16.9-36.1 7.7-1.9 11.5-.6 18 6 4.1 4.2 6.1 5.6 6.9 4.9.9-.7 1.4-.5 1.8.8.4 1 1.8 2.7 3.3 3.7 2.9 2.2.8 2.5 23.5-4 8.8-2.6 9.7-3 9.6-5.1-.3-3.1-2.2-3-18.2.7-7 1.6-13.2 2.7-13.7 2.4-.5-.3-.9-1.7-.9-3.2 0-4-3.4-8.8-7.1-10.1l-3.3-1.1 2.5 2.7c3.8 4.2 4.7 5.6 6.4 9.6 2.1 5 .3 4.7-2-.2-2.2-4.9-7.9-10.5-12.7-12.6-10-4.1-24.1.2-30.2 9.5-7.3 11.1-8.3 36-1.9 50.3 4.9 11 12.1 14.8 25 13.3 10.5-1.2 17-6.7 20.9-17.7 1.1-2.9 2.4-5.4 3.1-5.6 1.3-.5 31.3 8.4 32.7 9.7.5.5-1.3 5.4-4.3 11.4-11.4 23.4-26 31.8-55.1 32-9.7 0-15.3-.5-20-1.7-21.4-5.6-36.4-20.7-42.1-42.4-2.7-10-2.9-28.2-.5-39.8C68.3 89.3 79.2 74 93.5 66.7c3.9-2 6.6-3.6 6-3.6-.5 0-4 1.6-7.8 3.6z"/><path d="M153.2 141.4c-1.3 4.8-6.9 14.1-10.2 16.7-5.2 4.2-15.4 6.5-22.5 5.1-6.6-1.4-9.9-3.4-13.5-8.4-1.5-2-3.1-3.4-3.5-3-.5.4-.5-.2-.1-1.3s.4-1.7.1-1.3c-.4.3-2.3-.5-4.2-1.8-4.7-3.1-11.4-3.3-14.4-.3-5.4 5.4-8.3 18.2-5.5 23.7 3.2 6.1 16.2 13.7 28.1 16.3 9.4 2.1 34.6 1.8 42-.4 15.4-4.8 24.1-12.4 31.2-27.3 2.5-5.3 4.1-9.9 3.7-10.4-.5-.4-7.6-2.8-15.8-5.3-14.7-4.4-14.9-4.5-15.4-2.3zM226.5 126.5c0 38.5.1 54.1.2 34.7.2-19.5.2-51 0-70-.1-19.1-.2-3.2-.2 35.3zM82.8 218.7c1.2.2 3 .2 4 0 .9-.3-.1-.5-2.3-.4-2.2 0-3 .2-1.7.4z"/></svg>